<mxfile host="Electron" modified="2025-01-02T21:05:55.946Z" agent="Mozilla/5.0 (Windows NT 10.0; Win64; x64) AppleWebKit/537.36 (KHTML, like Gecko) draw.io/22.1.16 Chrome/120.0.6099.109 Electron/28.1.0 Safari/537.36" etag="MLsGFwU7AH1IxAluCCYg" version="22.1.16" type="device">
  <diagram name="Side-1" id="IycnSW4mOCCTB7Zb4ViX">
    <mxGraphModel dx="1098" dy="1180" grid="1" gridSize="10" guides="1" tooltips="1" connect="1" arrows="1" fold="1" page="1" pageScale="1" pageWidth="827" pageHeight="1169" math="0" shadow="0">
      <root>
        <mxCell id="0" />
        <mxCell id="1" parent="0" />
        <mxCell id="zg9GccNv7Drcui7V5n4X-2" value="BiquadSegmentEnd" style="swimlane;fontStyle=1;align=center;verticalAlign=top;childLayout=stackLayout;horizontal=1;startSize=26;horizontalStack=0;resizeParent=1;resizeParentMax=0;resizeLast=0;collapsible=1;marginBottom=0;whiteSpace=wrap;html=1;" vertex="1" parent="1">
          <mxGeometry x="240" y="350" width="390" height="270" as="geometry" />
        </mxCell>
        <mxCell id="zg9GccNv7Drcui7V5n4X-3" value="- isReady: bool&lt;br&gt;- isr: ISR*&lt;br&gt;- biquad_end: XBiquadv2end&lt;br&gt;&lt;br&gt;+ isDone: bool" style="text;strokeColor=none;fillColor=none;align=left;verticalAlign=top;spacingLeft=4;spacingRight=4;overflow=hidden;rotatable=0;points=[[0,0.5],[1,0.5]];portConstraint=eastwest;whiteSpace=wrap;html=1;" vertex="1" parent="zg9GccNv7Drcui7V5n4X-2">
          <mxGeometry y="26" width="390" height="84" as="geometry" />
        </mxCell>
        <mxCell id="zg9GccNv7Drcui7V5n4X-4" value="" style="line;strokeWidth=1;fillColor=none;align=left;verticalAlign=middle;spacingTop=-1;spacingLeft=3;spacingRight=3;rotatable=0;labelPosition=right;points=[];portConstraint=eastwest;strokeColor=inherit;" vertex="1" parent="zg9GccNv7Drcui7V5n4X-2">
          <mxGeometry y="110" width="390" height="8" as="geometry" />
        </mxCell>
        <mxCell id="zg9GccNv7Drcui7V5n4X-5" value="+&amp;nbsp;BiquadSegmentEnd():&amp;nbsp;BiquadSegmentEnd&lt;br&gt;+&amp;nbsp;BiquadSegmentEnd(ISR*, uint16_t):&amp;nbsp;BiquadSegmentEnd&lt;br&gt;+ SetCoefficients(uint32_t, uint32_t, uint32_t, uint32_t, uint32_t): void&lt;br&gt;+ Start(): void&lt;br&gt;+ ClearInterruptEnd(): void&lt;br&gt;+ EnableInterrupt(): void&lt;br&gt;&lt;br&gt;&lt;u&gt;+ ProcessingDone(void*): void&lt;/u&gt;&lt;br&gt;&lt;br&gt;- InitBiquad(uint16_t): int&lt;br&gt;&lt;br&gt;" style="text;strokeColor=none;fillColor=none;align=left;verticalAlign=top;spacingLeft=4;spacingRight=4;overflow=hidden;rotatable=0;points=[[0,0.5],[1,0.5]];portConstraint=eastwest;whiteSpace=wrap;html=1;" vertex="1" parent="zg9GccNv7Drcui7V5n4X-2">
          <mxGeometry y="118" width="390" height="152" as="geometry" />
        </mxCell>
      </root>
    </mxGraphModel>
  </diagram>
</mxfile>
